<?xml version="1.0" encoding="utf-8"?>
<!-- Generator: Adobe Illustrator 24.2.3, SVG Export Plug-In . SVG Version: 6.00 Build 0)  -->
<svg version="1.1" id="Layer_1" xmlns="http://www.w3.org/2000/svg" xmlns:xlink="http://www.w3.org/1999/xlink" x="0px" y="0px"
	 viewBox="0 0 1133.86 595.28" style="enable-background:new 0 0 1133.86 595.28;" xml:space="preserve">
<style type="text/css">
	.st0{fill:none;stroke:#000000;stroke-width:4.6745;stroke-linecap:round;stroke-miterlimit:10;}
	.st1{fill:none;stroke:#F6BF16;stroke-width:2.698;stroke-linecap:round;stroke-miterlimit:10;}
	.st2{fill:#F7BF16;}
	.st3{fill:#F6BF16;}
	.st4{fill:#F7C016;}
	.st5{fill:#F6C016;}
</style>
<path class="st0" d="M574.31,237.31"/>
<path class="st1" d="M580.71,322.68c-0.32-8.71-1.03-15.69-1.59-20.33c-1.45-11.98-3.23-19.08,0.14-21.32
	c2.01-1.34,4.72-0.19,4.85-0.13c3.02,1.32,4.36,5.43,3.45,8.52c-0.77,2.59-3.24,4.86-4.48,4.38c-1.09-0.43-1.05-2.95-1.04-3.7
	c0.13-7.76,8.82-15.56,11.38-14.18c2.6,1.4-1.81,11.78,1.28,13.4c1.66,0.87,4.42-1.48,4.77-1.77c6.59-5.6,3.58-18.33,3.15-20.05"/>
<path class="st2" d="M563.85,361.29c-28.87-0.01-54.09-20.44-59.91-48.51c-0.23-1.13,0.14-1.87,1-1.89
	c0.83-0.02,1.15,0.52,1.31,1.28c1,4.68,2.45,9.21,4.63,13.47c9.02,17.66,23.18,28.68,42.72,32.29c25.81,4.77,50.9-8.3,62.7-30.9
	c12.94-24.79,6.25-55.99-15.76-73.27c-5.6-4.4-11.76-7.74-18.53-9.93c-0.41-0.13-0.92-0.31-1.11-0.63c-0.2-0.34-0.28-1.06-0.06-1.28
	c0.32-0.33,1.03-0.61,1.42-0.47c2.67,0.95,5.4,1.82,7.93,3.08c19.04,9.51,30.75,24.72,34.27,45.72
	c5.41,32.33-15.91,63.07-48.09,69.75c-3.05,0.63-6.27,0.94-6.27,0.94C567.73,361.17,565.62,361.26,563.85,361.29z"/>
<path class="st3" d="M503.57,288.47c0.16-4.95,1.93-10.41,4.69-15.54c8.15-15.15,20.3-25.67,36.6-31.32c0.3-0.1,0.66-0.34,0.91-0.25
	c0.5,0.17,1.16,0.42,1.34,0.83c0.14,0.31-0.26,0.97-0.57,1.35c-0.19,0.24-0.66,0.25-0.99,0.37c-17.64,6.35-30.3,17.98-37.47,35.4
	c-1.24,3.01-1.99,6.18-2.08,9.45c-0.2,7,3.87,12.02,10.76,13.33c0.9,0.17,1.86,0.16,2.71,0.45c0.45,0.15,0.98,0.75,1.03,1.2
	c0.09,0.73-0.52,1.15-1.27,1.11C510.1,304.3,503.45,298.32,503.57,288.47z"/>
<path class="st3" d="M574.52,246.76c-0.51-3.62-3.54-5.96-7.07-5.64c-0.58,0.05-1.39-0.16-1.75-0.56c-0.59-0.65,0.04-1.56,1.07-1.74
	c4.34-0.75,8.47,1.85,9.87,6.2c1.01,3.14,0.57,3.86-2.73,4.39c-4.25,0.69-7.51-0.88-9.98-4.54c-0.29,0.39-0.53,0.74-0.78,1.07
	c-2.66,3.48-7.71,4.71-11.56,2.73c-0.42-0.21-0.87-0.95-0.83-1.38c0.63-5.74,4.97-9.07,9.93-8.52c0.92,0.1,1.77,0.28,1.6,1.44
	c-0.15,1.07-0.99,1.06-1.86,0.96c-3.55-0.41-6.54,1.92-7.09,5.48c3.15,1.57,7.41-0.27,8.86-3.85c0.21-0.52,0.39-1.06,0.47-1.61
	c0.12-0.78,0.52-1.42,1.28-1.26c0.46,0.1,1.02,0.75,1.15,1.25c0.45,1.72,1.16,3.25,2.55,4.39
	C569.72,247.25,572.02,247.57,574.52,246.76z"/>
<path class="st2" d="M545.55,352.86c-1.18-0.46-3.01-1.12-4.77-1.93c-0.28-0.13-0.46-1.05-0.31-1.47c1.2-3.22,2.48-6.41,3.75-9.6
	c0.32-0.8,0.91-1.07,1.74-0.74c1.04,0.42,2.1,0.78,3.11,1.26c2.86,1.37,3.38,4.08,1.33,6.5c-0.23,0.27-0.35,0.77-0.28,1.12
	C550.59,350.55,548.82,352.82,545.55,352.86z M544.17,346.53c-0.37,0.94-0.73,1.86-1.13,2.87c0.96,0.36,1.8,0.73,2.67,0.98
	c0.94,0.27,1.68-0.08,2-1.03c0.32-0.94-0.17-1.52-1.02-1.86C545.92,347.19,545.13,346.89,544.17,346.53z M545.05,344.29
	c0.9,0.34,1.66,0.59,2.38,0.92c0.65,0.3,1.16,0.25,1.53-0.39c0.38-0.65,0.48-1.35-0.24-1.8c-0.82-0.51-1.72-0.89-2.65-1.36
	C545.69,342.63,545.4,343.4,545.05,344.29z"/>
<path class="st4" d="M579.66,348.51c0.43,1.12,0.84,2.2,1.25,3.28c0.3,0.79,0.33,1.54-0.62,1.88c-0.9,0.32-1.33-0.26-1.61-0.99
	c-1.19-3.09-2.36-6.19-3.55-9.29c-0.38-0.98-0.09-1.64,0.88-1.99c1.27-0.47,2.53-1.01,3.83-1.36c2.91-0.78,5.18,1.15,5.08,4.17
	c-0.01,0.43,0.25,0.9,0.48,1.3c0.35,0.62,0.77,1.2,1.16,1.79c0.36,0.55,0.81,1.07,1.05,1.67c0.19,0.48,0.36,1.26,0.12,1.55
	c-0.26,0.32-1.25,0.49-1.51,0.26c-0.7-0.6-1.31-1.38-1.7-2.21c-0.75-1.59-0.84-1.7-2.51-1.07c-0.67,0.26-1.34,0.52-2.01,0.78
	C579.91,348.32,579.85,348.38,579.66,348.51z M578.76,346.17c0.92-0.35,1.76-0.69,2.62-0.99c0.89-0.31,1.31-0.9,1.06-1.83
	c-0.28-1.01-1.07-1.26-1.97-1.01c-0.94,0.26-1.84,0.65-2.8,1.01C578.06,344.35,578.4,345.23,578.76,346.17z"/>
<path class="st3" d="M567.32,345.37c0.11,0.88,0.2,1.59,0.3,2.43c1.09-0.12,2.14-0.24,3.19-0.35c0.48-0.05,1.03-0.24,1.42-0.07
	c0.46,0.2,1,0.66,1.11,1.11c0.18,0.74-0.4,1.15-1.13,1.24c-1.42,0.17-2.84,0.33-4.33,0.49c0.13,1.15,0.25,2.17,0.38,3.28
	c1.67-0.19,3.22-0.35,4.76-0.54c0.85-0.11,1.59,0.03,1.73,1c0.14,0.98-0.52,1.3-1.4,1.39c-1.91,0.2-3.82,0.42-5.73,0.66
	c-1.06,0.13-1.59-0.36-1.7-1.37c-0.36-3.3-0.7-6.61-1.08-9.91c-0.12-1.07,0.34-1.58,1.36-1.69c1.95-0.21,3.9-0.42,5.85-0.64
	c0.79-0.09,1.38,0.16,1.51,0.99c0.12,0.82-0.32,1.28-1.14,1.37C570.77,344.96,569.11,345.16,567.32,345.37z"/>
<path class="st3" d="M556.69,344.91c-0.1,0.87-0.19,1.58-0.29,2.44c1.31,0.17,2.57,0.31,3.82,0.5c0.46,0.07,1.02,0.17,1.3,0.47
	c0.25,0.28,0.37,0.94,0.21,1.27c-0.15,0.33-0.74,0.66-1.12,0.64c-1.47-0.07-2.94-0.29-4.52-0.46c-0.13,1.08-0.26,2.12-0.4,3.25
	c1.54,0.2,2.96,0.38,4.38,0.57c0.32,0.04,0.73-0.01,0.93,0.16c0.37,0.34,0.92,0.89,0.85,1.22c-0.1,0.42-0.77,1.04-1.16,1.02
	c-2.19-0.15-4.38-0.41-6.55-0.79c-0.4-0.07-0.99-0.93-0.95-1.37c0.35-3.46,0.83-6.91,1.29-10.36c0.12-0.87,0.68-1.22,1.54-1.11
	c1.9,0.24,3.81,0.48,5.71,0.73c0.85,0.11,1.66,0.37,1.49,1.46c-0.16,0.98-0.91,1.05-1.76,0.93
	C559.92,345.27,558.37,345.11,556.69,344.91z"/>
<path class="st3" d="M563.97,256.31c1.66-1.53,2.57-3.29,2.52-5.47c-0.02-0.78,0.23-1.37,1.09-1.44c0.93-0.07,1.28,0.55,1.3,1.37
	c0.08,3.46-1.52,6.07-4.23,8.04c-0.34,0.25-1.23,0.17-1.61-0.11c-2.42-1.81-3.9-4.2-4.09-7.29c-0.01-0.24-0.01-0.48,0.02-0.72
	c0.08-0.76,0.4-1.33,1.27-1.29c0.85,0.04,1.14,0.6,1.12,1.39c-0.05,2.04,0.74,3.74,2.16,5.16
	C563.63,256.07,563.77,256.15,563.97,256.31z"/>
<path class="st5" d="M568.37,263.14c0.64-0.75,1-1.38,1.54-1.74c0.41-0.27,1.23-0.43,1.55-0.21c0.32,0.23,0.54,1.22,0.32,1.5
	c-0.79,1.04-1.71,2.01-2.74,2.81c-0.39,0.3-1.21,0.05-1.8,0.05c0.38,0.89-0.41,1.5-1.01,2.15c-2,2.16-2.58,2.16-4.59,0.02
	c-0.3-0.32-0.72-0.65-0.8-1.03c-0.1-0.51-0.09-1.29,0.22-1.54c0.31-0.25,1.12-0.15,1.55,0.08c0.49,0.26,0.81,0.85,1.2,1.28
	c0.88-0.7,1.71-1.35,2.55-2.02c-0.55-0.8-1.28-1.78-1.93-2.82c-0.45-0.72-0.49-1.49,0.4-1.94c0.85-0.43,1.3,0.12,1.72,0.79
	C567.09,261.38,567.69,262.17,568.37,263.14z"/>
<path class="st3" d="M555.17,258.75c0.94-0.84,1.81-1.54,2.59-2.33c0.56-0.56,1.14-0.81,1.79-0.31c0.66,0.51,0.7,1.28,0.09,1.77
	c-1.41,1.15-2.88,2.25-4.41,3.22c-0.32,0.2-1.27-0.05-1.55-0.4c-2.22-2.83-3.01-5.96-1.72-9.45c0.31-0.83,0.82-1.49,1.79-1.08
	c0.91,0.38,0.8,1.12,0.47,1.93C553.31,254.36,553.74,256.48,555.17,258.75z"/>
<path class="st3" d="M572.7,258.75c1.44-2.31,1.86-4.45,0.9-6.74c-0.32-0.76-0.35-1.46,0.48-1.82c0.88-0.38,1.4,0.12,1.76,0.93
	c1.32,2.96,0.61,7.37-1.68,9.63c-0.33,0.33-1.23,0.55-1.56,0.34c-1.5-0.94-2.94-2.01-4.32-3.12c-0.65-0.53-0.65-1.32,0.06-1.86
	c0.64-0.49,1.23-0.24,1.79,0.33C570.9,257.21,571.76,257.91,572.7,258.75z"/>
<path class="st5" d="M590.08,344.06c-0.18-0.07-0.8-0.31-1.1-0.94c-0.07-0.14-0.22-0.46-0.15-0.82c0.1-0.54,0.62-0.86,0.79-0.96
	c1.25-0.8,6.77-5.3,8.38-6.59c0.68-0.55,1.33-1.07,2.07-0.3c0.74,0.77,0.3,1.49-0.39,2.04c-1.97,1.57-6.82,5.28-8.76,6.88
	C590.52,343.68,590.21,343.94,590.08,344.06z"/>
<path class="st5" d="M539.23,342.36c-0.04,1.29-0.99,1.77-1.94,1.18c-1.46-0.91-2.91-1.85-4.25-2.91c-1.69-1.33-3.28-2.8-4.91-4.22
	c-0.64-0.55-1.03-1.23-0.35-1.96c0.73-0.77,1.37-0.31,2.06,0.25c2.8,2.25,5.65,4.44,8.47,6.67
	C538.71,341.7,539.02,342.14,539.23,342.36z"/>
<path class="st5" d="M559.49,263.13c0.67-0.96,1.29-1.78,1.83-2.64c0.43-0.69,0.92-1.17,1.74-0.72c0.8,0.43,0.88,1.2,0.38,1.84
	c-1.06,1.36-2.2,2.66-3.41,3.89c-0.22,0.23-1.08,0.16-1.39-0.08c-0.89-0.73-1.68-1.58-2.45-2.45c-0.51-0.58-0.56-1.28,0.12-1.79
	c0.65-0.48,1.26-0.31,1.77,0.33C558.48,262,558.91,262.46,559.49,263.13z"/>
<path class="st0" d="M574.31,232.12"/>
<path class="st1" d="M565.17,329.79c-0.1-3.15-0.31-8.54-0.74-15.25c-1.12-17.37-2.64-25.93,1.16-27.96c1.45-0.77,3.4-0.44,4.62,0.2
	c2.38,1.25,3.21,4.35,3.09,6.57c-0.22,4.05-3.74,7.65-5.1,7.15c-1.25-0.47-1.42-4.69,0.23-7.73c2.27-4.2,7.36-4.94,8.15-5.04"/>
<path class="st1" d="M525.01,302.75c3.37-2.07,9.97-6.85,13.06-15.32c2.31-6.31,2.4-13.91,0.94-14.31
	c-1.68-0.46-6.48,8.39-7.91,17.69c-0.69,4.54-0.41,8.05-0.04,12.54c0.79,9.69,3.04,17.02,3.73,16.91c0.63-0.1-1.04-7.03,2.47-14.22
	c0.42-0.87,2.67-5.39,4.47-4.95c2.95,0.73,2.27,14.84,3.51,14.97c1.13,0.12,2.54-11.44,3.52-11.27c0.54,0.09,0.05,3.6,2.07,5.71
	c0.8,0.83,2.08,1.55,3.26,1.3c2.8-0.58,4.13-6.47,3.26-10.89c-0.22-1.12-0.87-4.41-2.86-5.09c-1.08-0.37-2.22,0.14-2.9,0.87
	c-1.63,1.76-1.58,5.19-0.37,5.91c1.24,0.74,4.35-1.03,11.48-9.03"/>
<path class="st1" d="M602.23,283.81c-3.01,30.18-5.13,38.43-6.62,38.39c-2.24-0.06-5.6-18.77,1.1-23.2
	c3.43-2.26,7.7,0.38,10.69-2.43c2.61-2.45,2.26-7.2,1.33-11.34"/>
<path d="M567.54,299.92"/>
</svg>
